<svg width="1920" height="1240" viewBox="0 0 1920 1240" fill="none" xmlns="http://www.w3.org/2000/svg">
<g filter="url(#filter0_d_155_113)">
<path d="M485 940C329 901.6 26.3333 888.667 -72 940H-98.5L-56.5 -71H1951V940C1947.67 998.167 1869.7 1127.5 1584.5 1179.5C1228 1244.5 680 988 485 940Z" fill="url(#paint0_linear_155_113)"/>
<path d="M485 940C329 901.6 26.3333 888.667 -72 940H-98.5L-56.5 -71H1951V940C1947.67 998.167 1869.7 1127.5 1584.5 1179.5C1228 1244.5 680 988 485 940Z" stroke="#2EA3A5"/>
</g>
<defs>
<filter id="filter0_d_155_113" x="-123.021" y="-82.5" width="2110.52" height="1321.99" filterUnits="userSpaceOnUse" color-interpolation-filters="sRGB">
<feFlood flood-opacity="0" result="BackgroundImageFix"/>
<feColorMatrix in="SourceAlpha" type="matrix" values="0 0 0 0 0 0 0 0 0 0 0 0 0 0 0 0 0 0 127 0" result="hardAlpha"/>
<feOffset dx="6" dy="19"/>
<feGaussianBlur stdDeviation="15"/>
<feComposite in2="hardAlpha" operator="out"/>
<feColorMatrix type="matrix" values="0 0 0 0 0 0 0 0 0 0 0 0 0 0 0 0 0 0 0.25 0"/>
<feBlend mode="normal" in2="BackgroundImageFix" result="effect1_dropShadow_155_113"/>
<feBlend mode="normal" in="SourceGraphic" in2="effect1_dropShadow_155_113" result="shape"/>
</filter>
<linearGradient id="paint0_linear_155_113" x1="926.25" y1="-71" x2="926.25" y2="1189.99" gradientUnits="userSpaceOnUse">
<stop offset="0.119792" stop-color="#0E6073"/>
<stop offset="1" stop-color="#63AEAB"/>
<stop offset="1" stop-color="#2EA3A5"/>
</linearGradient>
</defs>
</svg>
